<svg width="108" height="22" viewBox="0 0 108 22" fill="none" xmlns="http://www.w3.org/2000/svg">
<path d="M0 5.88257V3.49927H13.6065V5.88257H8.22238V19.3951H5.31548V5.88257H0Z" fill="white"/>
<path d="M47.7565 19.3951H44.9435V3.49927H48.5653L55.8561 15.8202V3.49927H58.6691V19.3951H55.1664L47.7565 7.17171V19.3951Z" fill="white"/>
<path d="M71.1127 9.9087H67.3716C64.8945 9.9087 63.9159 10.9559 63.9159 13.6498C63.9159 15.0075 64.2733 15.9861 64.9631 16.6036C65.5336 17.1055 66.2017 17.2717 67.5377 17.2717H71.1127V19.3913H67.108C64.8222 19.3913 63.6053 18.9869 62.6267 17.9397C61.6987 16.9394 61.1498 15.3903 61.1498 13.6967C61.1498 11.7901 61.7203 10.2156 62.7928 9.14316C63.7931 8.16456 64.9595 7.7854 67.1044 7.7854H71.1091V9.90509L71.1127 9.9087Z" fill="white"/>
<path d="M76.2184 7.78921H79.1722C82.9133 7.76393 84.2241 9.00613 84.2241 12.5305V19.3951H81.5303V12.7219C81.5772 10.53 80.9814 9.9089 78.8617 9.9089H76.2148V19.3951H73.5209V3.49927H76.2148V7.78921H76.2184Z" fill="white"/>
<path d="M95.2128 12.3174C95.2598 10.3855 94.7362 9.88716 92.6851 9.90883H87.2504V7.78914H92.9451C96.6645 7.66997 97.9717 8.8869 97.9031 12.4113V19.3951H91.6595C89.3737 19.3951 88.7274 19.2759 87.9654 18.7523C87.106 18.1565 86.6293 17.131 86.6293 15.9176C86.6293 14.4877 87.2721 13.2707 88.3446 12.7255C88.9151 12.4402 89.7998 12.321 91.1793 12.321H95.2056L95.2128 12.3174ZM91.4248 14.4371C90.7098 14.4371 90.4462 14.4624 90.1609 14.5815C89.6843 14.7729 89.399 15.2496 89.399 15.8671C89.399 16.8926 89.9479 17.2718 91.4248 17.2718H95.2128V14.4371H91.4248Z" fill="white"/>
<path d="M101.648 3.49922H104.342V7.78916H107.559V9.90885H104.342V15.1521C104.316 16.9143 104.605 17.2501 106.248 17.2718H107.559V19.3915H105.27C102.601 19.4384 101.601 18.3659 101.648 15.506V9.90524H99.528V7.78554H101.648V3.49561V3.49922Z" fill="white"/>
<path d="M30.5423 0H26.209C25.8102 0 25.4868 0.323345 25.4868 0.722212C25.4868 1.12108 25.8102 1.44442 26.209 1.44442H30.5423C30.9412 1.44442 31.2645 1.12108 31.2645 0.722212C31.2645 0.323345 30.9412 0 30.5423 0Z" fill="#00DF7B"/>
<path d="M28.7366 5.41659V0.361106C28.7366 0.161673 28.5749 0 28.3755 0C28.176 0 28.0144 0.161673 28.0144 0.361106V5.41659C28.0144 5.61602 28.176 5.7777 28.3755 5.7777C28.5749 5.7777 28.7366 5.61602 28.7366 5.41659Z" fill="#00DF7B"/>
<path d="M22.3778 5.84635L34.3665 5.88246C37.4359 5.88246 39.9312 8.38131 39.9312 11.4507C39.9312 14.5201 37.4359 17.019 34.3737 17.019L22.3814 16.9829C19.312 16.9829 16.8168 14.484 16.8168 11.4146C16.8168 8.3452 19.312 5.84996 22.3778 5.84635ZM22.3814 3.3186C17.9109 3.3186 14.289 6.94411 14.289 11.4146C14.289 15.8851 17.9109 19.5106 22.3814 19.5106L34.3665 19.5467C38.837 19.5467 42.4589 15.9212 42.4589 11.4507C42.4589 6.98022 38.837 3.35471 34.3665 3.35471L22.3814 3.3186Z" fill="#00DF7B"/>
<path d="M37.5008 21.9336C36.9483 22.1177 35.6592 21.9336 34.5578 21.1969C33.4564 20.4603 32.3514 18.9906 32.3514 18.9906L36.3994 18.2539C36.3994 18.2539 36.403 19.1928 36.5836 19.9114C36.9519 21.3847 38.0569 21.753 37.5044 21.9372L37.5008 21.9336Z" fill="#00DF7B"/>
<path d="M33.89 13.4583C35.0088 13.4583 35.9158 12.5514 35.9158 11.4325C35.9158 10.3137 35.0088 9.40674 33.89 9.40674C32.7712 9.40674 31.8642 10.3137 31.8642 11.4325C31.8642 12.5514 32.7712 13.4583 33.89 13.4583Z" fill="#00DF7B"/>
<path d="M22.8619 13.4583C23.9807 13.4583 24.8877 12.5514 24.8877 11.4325C24.8877 10.3137 23.9807 9.40674 22.8619 9.40674C21.743 9.40674 20.8361 10.3137 20.8361 11.4325C20.8361 12.5514 21.743 13.4583 22.8619 13.4583Z" fill="#00DF7B"/>
</svg>
